<svg xmlns="http://www.w3.org/2000/svg" width="64" height="64" viewBox="0 0 64 64">
  <!-- Three overlapping device-node glyphs (a nod to Syncthing's own hub-and-spoke mark), rotated and blended to read as interwoven. -->
  <circle cx="32" cy="32" r="32" fill="#0f1626"/>
  <g style="mix-blend-mode:screen">
    <g transform="translate(32.00 38.50) rotate(0.00)" fill="#3aa0ff" fill-opacity="0.95" stroke="#3aa0ff" stroke-opacity="0.95">
      <circle cx="0" cy="0" r="6.5" stroke="none"/>
      <line x1="0.00" y1="-3.25" x2="0.00" y2="-11.50" stroke-width="4.2" stroke-linecap="round"/>
      <circle cx="0.00" cy="-11.50" r="4.6" stroke="none"/>
      <line x1="2.81" y1="1.62" x2="9.96" y2="5.75" stroke-width="4.2" stroke-linecap="round"/>
      <circle cx="9.96" cy="5.75" r="4.6" stroke="none"/>
      <line x1="-2.81" y1="1.62" x2="-9.96" y2="5.75" stroke-width="4.2" stroke-linecap="round"/>
      <circle cx="-9.96" cy="5.75" r="4.6" stroke="none"/>
    </g>
    <g transform="translate(26.37 28.75) rotate(120.00)" fill="#2fe0c4" fill-opacity="0.95" stroke="#2fe0c4" stroke-opacity="0.95">
      <circle cx="0" cy="0" r="6.5" stroke="none"/>
      <line x1="0.00" y1="-3.25" x2="0.00" y2="-11.50" stroke-width="4.2" stroke-linecap="round"/>
      <circle cx="0.00" cy="-11.50" r="4.6" stroke="none"/>
      <line x1="2.81" y1="1.62" x2="9.96" y2="5.75" stroke-width="4.2" stroke-linecap="round"/>
      <circle cx="9.96" cy="5.75" r="4.6" stroke="none"/>
      <line x1="-2.81" y1="1.62" x2="-9.96" y2="5.75" stroke-width="4.2" stroke-linecap="round"/>
      <circle cx="-9.96" cy="5.75" r="4.6" stroke="none"/>
    </g>
    <g transform="translate(37.63 28.75) rotate(240.00)" fill="#9b8bff" fill-opacity="0.95" stroke="#9b8bff" stroke-opacity="0.95">
      <circle cx="0" cy="0" r="6.5" stroke="none"/>
      <line x1="0.00" y1="-3.25" x2="0.00" y2="-11.50" stroke-width="4.2" stroke-linecap="round"/>
      <circle cx="0.00" cy="-11.50" r="4.6" stroke="none"/>
      <line x1="2.81" y1="1.62" x2="9.96" y2="5.75" stroke-width="4.2" stroke-linecap="round"/>
      <circle cx="9.96" cy="5.75" r="4.6" stroke="none"/>
      <line x1="-2.81" y1="1.62" x2="-9.96" y2="5.75" stroke-width="4.2" stroke-linecap="round"/>
      <circle cx="-9.96" cy="5.75" r="4.6" stroke="none"/>
    </g>
  </g>
</svg>
