<svg xmlns="http://www.w3.org/2000/svg" width="64" height="64" viewBox="0 0 64 64">
  <defs>
    <linearGradient id="st" x1="32" y1="64" x2="32" y2="0" gradientUnits="userSpaceOnUse">
      <stop offset="0" stop-color="#0882C8"/>
      <stop offset="1" stop-color="#26B6DB"/>
    </linearGradient>
  </defs>
  <circle cx="32" cy="32" r="32" fill="url(#st)"/>
  <circle cx="32" cy="32" r="23.85" fill="none" stroke="#fff" stroke-width="3.27"/>
  <g transform="rotate(120 32 32)">
    <g fill="#fff" stroke="#fff" opacity="0.28" stroke-width="2.20" stroke-linecap="round">
    <line x1="36.83" y1="35.14" x2="53.26" y2="21.50"/>
    <circle cx="53.26" cy="21.50" r="3.4" stroke="none"/>
    <line x1="36.83" y1="35.14" x2="47.20" y2="50.10"/>
    <circle cx="47.20" cy="50.10" r="3.4" stroke="none"/>
    <line x1="36.83" y1="35.14" x2="9.06" y2="37.71"/>
    <circle cx="9.06" cy="37.71" r="3.4" stroke="none"/>
    <circle cx="36.83" cy="35.14" r="3.6" stroke="none"/>
    </g>
  </g>
  <g transform="rotate(240 32 32)">
    <g fill="#fff" stroke="#fff" opacity="0.5" stroke-width="2.60" stroke-linecap="round">
    <line x1="36.83" y1="35.14" x2="53.26" y2="21.50"/>
    <circle cx="53.26" cy="21.50" r="3.9" stroke="none"/>
    <line x1="36.83" y1="35.14" x2="47.20" y2="50.10"/>
    <circle cx="47.20" cy="50.10" r="3.9" stroke="none"/>
    <line x1="36.83" y1="35.14" x2="9.06" y2="37.71"/>
    <circle cx="9.06" cy="37.71" r="3.9" stroke="none"/>
    <circle cx="36.83" cy="35.14" r="4.1" stroke="none"/>
    </g>
  </g>
  <g fill="#fff" stroke="#fff" opacity="1.0" stroke-width="3.27" stroke-linecap="round">
    <line x1="36.83" y1="35.14" x2="53.26" y2="21.50"/>
    <circle cx="53.26" cy="21.50" r="5.0" stroke="none"/>
    <line x1="36.83" y1="35.14" x2="47.20" y2="50.10"/>
    <circle cx="47.20" cy="50.10" r="5.0" stroke="none"/>
    <line x1="36.83" y1="35.14" x2="9.06" y2="37.71"/>
    <circle cx="9.06" cy="37.71" r="5.0" stroke="none"/>
    <circle cx="36.83" cy="35.14" r="5.1" stroke="none"/>
    </g>
</svg>
