<svg xmlns="http://www.w3.org/2000/svg" width="64" height="64" viewBox="0 0 64 64">
  <defs>
    <linearGradient id="st" x1="32" y1="64" x2="32" y2="0" gradientUnits="userSpaceOnUse">
      <stop offset="0" stop-color="#0882C8"/>
      <stop offset="1" stop-color="#26B6DB"/>
    </linearGradient>
  </defs>
  <circle cx="32" cy="32" r="32" fill="url(#st)"/>
  <circle cx="32" cy="32" r="23.85" fill="none" stroke="#fff" stroke-width="3.27"/>
  <g transform="translate(32 32) rotate(112) scale(0.91) translate(-32 -32)" fill="#fff" stroke="#fff" opacity="0.6" stroke-width="2.5" stroke-linecap="round">
    <line x1="40.83" y1="31.64" x2="53.26" y2="21.50"/>
    <circle cx="53.26" cy="21.50" r="3.5" stroke="none"/>
    <line x1="40.83" y1="31.64" x2="47.20" y2="50.10"/>
    <circle cx="47.20" cy="50.10" r="3.5" stroke="none"/>
    <line x1="40.83" y1="31.64" x2="9.06" y2="37.71"/>
    <circle cx="9.06" cy="37.71" r="3.5" stroke="none"/>
    <circle cx="40.83" cy="31.64" r="3.7" stroke="none"/>
  </g>
  <g transform="translate(32 32) rotate(250) scale(0.96) translate(-32 -32)" fill="#fff" stroke="#fff" opacity="0.8" stroke-width="2.8" stroke-linecap="round">
    <line x1="33.33" y1="32.64" x2="53.26" y2="21.50"/>
    <circle cx="53.26" cy="21.50" r="4.1" stroke="none"/>
    <line x1="33.33" y1="32.64" x2="47.20" y2="50.10"/>
    <circle cx="47.20" cy="50.10" r="4.1" stroke="none"/>
    <line x1="33.33" y1="32.64" x2="9.06" y2="37.71"/>
    <circle cx="9.06" cy="37.71" r="4.1" stroke="none"/>
    <circle cx="33.33" cy="32.64" r="4.3" stroke="none"/>
  </g>
  <g transform="translate(32 32) rotate(6) scale(1) translate(-32 -32)" fill="#fff" stroke="#fff" opacity="1" stroke-width="3.27" stroke-linecap="round">
    <line x1="37.83" y1="38.64" x2="53.26" y2="21.50"/>
    <circle cx="53.26" cy="21.50" r="5.0" stroke="none"/>
    <line x1="37.83" y1="38.64" x2="47.20" y2="50.10"/>
    <circle cx="47.20" cy="50.10" r="5.0" stroke="none"/>
    <line x1="37.83" y1="38.64" x2="9.06" y2="37.71"/>
    <circle cx="9.06" cy="37.71" r="5.0" stroke="none"/>
    <circle cx="37.83" cy="38.64" r="5.1" stroke="none"/>
  </g>
</svg>
